{"asset":{"version":"2.0","generator":"Stracomter III \u00b7 conversor 3DS del proyecto de 2012"},"scene":0,"scenes":[{"nodes":[0]}],"nodes":[{"mesh":0,"name":"h1"}],"meshes":[{"name":"h1","primitives":[{"attributes":{"POSITION":0,"TEXCOORD_0":1},"indices":2,"mode":4}]}],"bufferViews":[{"buffer":0,"byteOffset":0,"byteLength":6060,"target":34962},{"buffer":0,"byteOffset":6060,"byteLength":4040,"target":34962},{"buffer":0,"byteOffset":10100,"byteLength":3228,"target":34963}],"accessors":[{"bufferView":0,"componentType":5126,"count":505,"type":"VEC3","min":[-0.6419420709744306,0.0,-0.4666131656270631],"max":[0.6419420709744306,1.8000245599301767,0.4666131656270631]},{"bufferView":1,"componentType":5126,"count":505,"type":"VEC2"},{"bufferView":2,"componentType":5123,"count":1614,"type":"SCALAR"}],"buffers":[{"byteLength":13328,"uri":"data:application/octet-stream;base64,"}]}