{"asset":{"version":"2.0","generator":"Stracomter III \u00b7 conversor 3DS del proyecto de 2012"},"scene":0,"scenes":[{"nodes":[0]}],"nodes":[{"mesh":0,"name":"sp1"}],"meshes":[{"name":"sp1","primitives":[{"attributes":{"POSITION":0,"TEXCOORD_0":1},"indices":2,"mode":4}]}],"bufferViews":[{"buffer":0,"byteOffset":0,"byteLength":5424,"target":34962},{"buffer":0,"byteOffset":5424,"byteLength":3616,"target":34962},{"buffer":0,"byteOffset":9040,"byteLength":2924,"target":34963}],"accessors":[{"bufferView":0,"componentType":5126,"count":452,"type":"VEC3","min":[-0.5014968010985735,0.0,-0.24618369167290843],"max":[0.5014968010985735,1.7999427550047344,0.24618369167290843]},{"bufferView":1,"componentType":5126,"count":452,"type":"VEC2"},{"bufferView":2,"componentType":5123,"count":1461,"type":"SCALAR"}],"buffers":[{"byteLength":11964,"uri":"data:application/octet-stream;base64,"}]}