{"asset":{"version":"2.0","generator":"Stracomter III \u00b7 conversor 3DS del proyecto de 2012"},"scene":0,"scenes":[{"nodes":[0]}],"nodes":[{"mesh":0,"name":"sp5"}],"meshes":[{"name":"sp5","primitives":[{"attributes":{"POSITION":0,"TEXCOORD_0":1},"indices":2,"mode":4}]}],"bufferViews":[{"buffer":0,"byteOffset":0,"byteLength":5424,"target":34962},{"buffer":0,"byteOffset":5424,"byteLength":3616,"target":34962},{"buffer":0,"byteOffset":9040,"byteLength":2924,"target":34963}],"accessors":[{"bufferView":0,"componentType":5126,"count":452,"type":"VEC3","min":[-0.5887508392333984,0.0,-0.26180504363717383],"max":[0.5887508392333984,1.8196836941450543,0.26180504363717383]},{"bufferView":1,"componentType":5126,"count":452,"type":"VEC2"},{"bufferView":2,"componentType":5123,"count":1461,"type":"SCALAR"}],"buffers":[{"byteLength":11964,"uri":"data:application/octet-stream;base64,"}]}