{"asset":{"version":"2.0","generator":"Stracomter III \u00b7 conversor 3DS del proyecto de 2012"},"scene":0,"scenes":[{"nodes":[0]}],"nodes":[{"mesh":0,"name":"sn5"}],"meshes":[{"name":"sn5","primitives":[{"attributes":{"POSITION":0,"TEXCOORD_0":1},"indices":2,"mode":4}]}],"bufferViews":[{"buffer":0,"byteOffset":0,"byteLength":6300,"target":34962},{"buffer":0,"byteOffset":6300,"byteLength":4200,"target":34962},{"buffer":0,"byteOffset":10500,"byteLength":3192,"target":34963}],"accessors":[{"bufferView":0,"componentType":5126,"count":525,"type":"VEC3","min":[-0.5744850358049466,0.0,-0.3106212712017254],"max":[0.5744850358049466,1.876718850144341,0.3106212712017254]},{"bufferView":1,"componentType":5126,"count":525,"type":"VEC2"},{"bufferView":2,"componentType":5123,"count":1596,"type":"SCALAR"}],"buffers":[{"byteLength":13692,"uri":"data:application/octet-stream;base64,"}]}