{"asset":{"version":"2.0","generator":"Stracomter III \u00b7 conversor 3DS del proyecto de 2012"},"scene":0,"scenes":[{"nodes":[0]}],"nodes":[{"mesh":0,"name":"d1"}],"meshes":[{"name":"d1","primitives":[{"attributes":{"POSITION":0,"TEXCOORD_0":1},"indices":2,"mode":4}]}],"bufferViews":[{"buffer":0,"byteOffset":0,"byteLength":7464,"target":34962},{"buffer":0,"byteOffset":7464,"byteLength":4976,"target":34962},{"buffer":0,"byteOffset":12440,"byteLength":3504,"target":34963}],"accessors":[{"bufferView":0,"componentType":5126,"count":622,"type":"VEC3","min":[-0.5671077925256844,0.0,-0.3794249806408849],"max":[0.5671077925256844,1.8000471970767464,0.3794249806408849]},{"bufferView":1,"componentType":5126,"count":622,"type":"VEC2"},{"bufferView":2,"componentType":5123,"count":1752,"type":"SCALAR"}],"buffers":[{"byteLength":15944,"uri":"data:application/octet-stream;base64,"}]}