{"asset":{"version":"2.0","generator":"Stracomter III \u00b7 conversor 3DS del proyecto de 2012"},"scene":0,"scenes":[{"nodes":[0]}],"nodes":[{"mesh":0,"name":"ammo_pack"}],"meshes":[{"name":"ammo_pack","primitives":[{"attributes":{"POSITION":0,"TEXCOORD_0":1},"indices":2,"mode":4}]}],"bufferViews":[{"buffer":0,"byteOffset":0,"byteLength":8472,"target":34962},{"buffer":0,"byteOffset":8472,"byteLength":5648,"target":34962},{"buffer":0,"byteOffset":14120,"byteLength":3744,"target":34963}],"accessors":[{"bufferView":0,"componentType":5126,"count":706,"type":"VEC3","min":[-0.19617192498440741,0.0,-0.22566629577751157],"max":[0.19617192498440741,0.14370742474746703,0.22566629577751157]},{"bufferView":1,"componentType":5126,"count":706,"type":"VEC2"},{"bufferView":2,"componentType":5123,"count":1872,"type":"SCALAR"}],"buffers":[{"byteLength":17864,"uri":"data:application/octet-stream;base64,"}]}