{"asset":{"version":"2.0","generator":"Stracomter III \u00b7 conversor 3DS del proyecto de 2012"},"scene":0,"scenes":[{"nodes":[0]}],"nodes":[{"mesh":0,"name":"desk"}],"meshes":[{"name":"desk","primitives":[{"attributes":{"POSITION":0,"TEXCOORD_0":1},"indices":2,"mode":4}]}],"bufferViews":[{"buffer":0,"byteOffset":0,"byteLength":2304,"target":34962},{"buffer":0,"byteOffset":2304,"byteLength":1536,"target":34962},{"buffer":0,"byteOffset":3840,"byteLength":1352,"target":34963}],"accessors":[{"bufferView":0,"componentType":5126,"count":192,"type":"VEC3","min":[-1.0769276970783233,0.0,-0.7179517980522155],"max":[1.0769276970783233,1.0230822341867476,0.7179517980522155]},{"bufferView":1,"componentType":5126,"count":192,"type":"VEC2"},{"bufferView":2,"componentType":5123,"count":675,"type":"SCALAR"}],"buffers":[{"byteLength":5192,"uri":"data:application/octet-stream;base64,"}]}