{"asset":{"version":"2.0","generator":"Stracomter III \u00b7 conversor 3DS del proyecto de 2012"},"scene":0,"scenes":[{"nodes":[0]}],"nodes":[{"mesh":0,"name":"estanteria"}],"meshes":[{"name":"estanteria","primitives":[{"attributes":{"POSITION":0,"TEXCOORD_0":1},"indices":2,"mode":4}]}],"bufferViews":[{"buffer":0,"byteOffset":0,"byteLength":3216,"target":34962},{"buffer":0,"byteOffset":3216,"byteLength":2144,"target":34962},{"buffer":0,"byteOffset":5360,"byteLength":1596,"target":34963}],"accessors":[{"bufferView":0,"componentType":5126,"count":268,"type":"VEC3","min":[-0.6444887197881698,0.0,-0.18564097088379858],"max":[0.6444887197881698,1.4010627177371666,0.18564097088379858]},{"bufferView":1,"componentType":5126,"count":268,"type":"VEC2"},{"bufferView":2,"componentType":5123,"count":798,"type":"SCALAR"}],"buffers":[{"byteLength":6956,"uri":"data:application/octet-stream;base64,"}]}