{"asset":{"version":"2.0","generator":"Stracomter III \u00b7 conversor 3DS del proyecto de 2012"},"scene":0,"scenes":[{"nodes":[0]}],"nodes":[{"mesh":0,"name":"hpack"}],"meshes":[{"name":"hpack","primitives":[{"attributes":{"POSITION":0,"TEXCOORD_0":1},"indices":2,"mode":4}]}],"bufferViews":[{"buffer":0,"byteOffset":0,"byteLength":68844,"target":34962},{"buffer":0,"byteOffset":68844,"byteLength":45896,"target":34962},{"buffer":0,"byteOffset":114740,"byteLength":61800,"target":34963}],"accessors":[{"bufferView":0,"componentType":5126,"count":5737,"type":"VEC3","min":[-0.2506040538675308,0.0,-0.20613308553676604],"max":[0.2506040538675308,0.20693331165509224,0.20613308553676604]},{"bufferView":1,"componentType":5126,"count":5737,"type":"VEC2"},{"bufferView":2,"componentType":5123,"count":30900,"type":"SCALAR"}],"buffers":[{"byteLength":176540,"uri":"data:application/octet-stream;base64,"}]}