{"asset":{"version":"2.0","generator":"Stracomter III \u00b7 conversor 3DS del proyecto de 2012"},"scene":0,"scenes":[{"nodes":[0]}],"nodes":[{"mesh":0,"name":"mesaSillas"}],"meshes":[{"name":"mesaSillas","primitives":[{"attributes":{"POSITION":0,"TEXCOORD_0":1},"indices":2,"mode":4}]}],"bufferViews":[{"buffer":0,"byteOffset":0,"byteLength":13572,"target":34962},{"buffer":0,"byteOffset":13572,"byteLength":9048,"target":34962},{"buffer":0,"byteOffset":22620,"byteLength":2268,"target":34963}],"accessors":[{"bufferView":0,"componentType":5126,"count":1131,"type":"VEC3","min":[-0.7054217695629119,0.0,-0.8817772755317688],"max":[0.7054217695629119,0.7069591956083804,0.8817772755317688]},{"bufferView":1,"componentType":5126,"count":1131,"type":"VEC2"},{"bufferView":2,"componentType":5123,"count":1134,"type":"SCALAR"}],"buffers":[{"byteLength":24888,"uri":"data:application/octet-stream;base64,"}]}