{"asset":{"version":"2.0","generator":"Stracomter III \u00b7 conversor 3DS del proyecto de 2012"},"scene":0,"scenes":[{"nodes":[0]}],"nodes":[{"mesh":0,"name":"mesa"}],"meshes":[{"name":"mesa","primitives":[{"attributes":{"POSITION":0,"TEXCOORD_0":1},"indices":2,"mode":4}]}],"bufferViews":[{"buffer":0,"byteOffset":0,"byteLength":176628,"target":34962},{"buffer":0,"byteOffset":176628,"byteLength":117752,"target":34962},{"buffer":0,"byteOffset":294380,"byteLength":113664,"target":34963}],"accessors":[{"bufferView":0,"componentType":5126,"count":14719,"type":"VEC3","min":[-0.3273135331138611,0.0,-0.639021636491394],"max":[0.3273135331138611,0.531345780314225,0.639021636491394]},{"bufferView":1,"componentType":5126,"count":14719,"type":"VEC2"},{"bufferView":2,"componentType":5123,"count":56832,"type":"SCALAR"}],"buffers":[{"byteLength":408044,"uri":"data:application/octet-stream;base64,"}]}