{"asset":{"version":"2.0","generator":"Stracomter III \u00b7 conversor 3DS del proyecto de 2012"},"scene":0,"scenes":[{"nodes":[0]}],"nodes":[{"mesh":0,"name":"plant"}],"meshes":[{"name":"plant","primitives":[{"attributes":{"POSITION":0,"TEXCOORD_0":1},"indices":2,"mode":4}]}],"bufferViews":[{"buffer":0,"byteOffset":0,"byteLength":23388,"target":34962},{"buffer":0,"byteOffset":23388,"byteLength":15592,"target":34962},{"buffer":0,"byteOffset":38980,"byteLength":11904,"target":34963}],"accessors":[{"bufferView":0,"componentType":5126,"count":1949,"type":"VEC3","min":[-0.2600891731803894,0.0,-0.27332115507431026],"max":[0.2600891731803894,0.6663742357593119,0.27332115507431026]},{"bufferView":1,"componentType":5126,"count":1949,"type":"VEC2"},{"bufferView":2,"componentType":5123,"count":5952,"type":"SCALAR"}],"buffers":[{"byteLength":50884,"uri":"data:application/octet-stream;base64,"}]}