{"asset":{"version":"2.0","generator":"Stracomter III \u00b7 conversor 3DS del proyecto de 2012"},"scene":0,"scenes":[{"nodes":[0]}],"nodes":[{"mesh":0,"name":"sillon"}],"meshes":[{"name":"sillon","primitives":[{"attributes":{"POSITION":0,"TEXCOORD_0":1},"indices":2,"mode":4}]}],"bufferViews":[{"buffer":0,"byteOffset":0,"byteLength":106068,"target":34962},{"buffer":0,"byteOffset":106068,"byteLength":70712,"target":34962},{"buffer":0,"byteOffset":176780,"byteLength":89376,"target":34963}],"accessors":[{"bufferView":0,"componentType":5126,"count":8839,"type":"VEC3","min":[-0.306134501283741,0.0,-0.2993711489498138],"max":[0.306134501283741,0.5735372284727263,0.2993711489498138]},{"bufferView":1,"componentType":5126,"count":8839,"type":"VEC2"},{"bufferView":2,"componentType":5123,"count":44688,"type":"SCALAR"}],"buffers":[{"byteLength":266156,"uri":"data:application/octet-stream;base64,"}]}