{"asset":{"version":"2.0","generator":"Stracomter III \u00b7 conversor 3DS del proyecto de 2012"},"scene":0,"scenes":[{"nodes":[0]}],"nodes":[{"mesh":0,"name":"sillaEspera"}],"meshes":[{"name":"sillaEspera","primitives":[{"attributes":{"POSITION":0,"TEXCOORD_0":1},"indices":2,"mode":4}]}],"bufferViews":[{"buffer":0,"byteOffset":0,"byteLength":24192,"target":34962},{"buffer":0,"byteOffset":24192,"byteLength":16128,"target":34962},{"buffer":0,"byteOffset":40320,"byteLength":22992,"target":34963}],"accessors":[{"bufferView":0,"componentType":5126,"count":2016,"type":"VEC3","min":[-0.3081246111562729,0.0,-0.321713062902832],"max":[0.3081246111562729,0.7075670100697518,0.321713062902832]},{"bufferView":1,"componentType":5126,"count":2016,"type":"VEC2"},{"bufferView":2,"componentType":5123,"count":11496,"type":"SCALAR"}],"buffers":[{"byteLength":63312,"uri":"data:application/octet-stream;base64,"}]}