{"asset":{"version":"2.0","generator":"Stracomter III \u00b7 conversor 3DS del proyecto de 2012"},"scene":0,"scenes":[{"nodes":[0]}],"nodes":[{"mesh":0,"name":"sofa"}],"meshes":[{"name":"sofa","primitives":[{"attributes":{"POSITION":0,"TEXCOORD_0":1},"indices":2,"mode":4}]}],"bufferViews":[{"buffer":0,"byteOffset":0,"byteLength":188256,"target":34962},{"buffer":0,"byteOffset":188256,"byteLength":125504,"target":34962},{"buffer":0,"byteOffset":313760,"byteLength":129120,"target":34963}],"accessors":[{"bufferView":0,"componentType":5126,"count":15688,"type":"VEC3","min":[-0.3537343273522377,0.0,-1.0021736013305664],"max":[0.3537343273522377,0.6338907289085388,1.0021736013305664]},{"bufferView":1,"componentType":5126,"count":15688,"type":"VEC2"},{"bufferView":2,"componentType":5123,"count":64560,"type":"SCALAR"}],"buffers":[{"byteLength":442880,"uri":"data:application/octet-stream;base64,"}]}