{"asset":{"version":"2.0","generator":"Stracomter III \u00b7 conversor 3DS del proyecto de 2012"},"scene":0,"scenes":[{"nodes":[0]}],"nodes":[{"mesh":0,"name":"c2"}],"meshes":[{"name":"c2","primitives":[{"attributes":{"POSITION":0,"TEXCOORD_0":1},"indices":2,"mode":4}]}],"bufferViews":[{"buffer":0,"byteOffset":0,"byteLength":6108,"target":34962},{"buffer":0,"byteOffset":6108,"byteLength":4072,"target":34962},{"buffer":0,"byteOffset":10180,"byteLength":3132,"target":34963}],"accessors":[{"bufferView":0,"componentType":5126,"count":509,"type":"VEC3","min":[-0.5215557472716615,0.0,-0.3464703224334816],"max":[0.5215557472716615,1.8436038193970516,0.3464703224334816]},{"bufferView":1,"componentType":5126,"count":509,"type":"VEC2"},{"bufferView":2,"componentType":5123,"count":1566,"type":"SCALAR"}],"buffers":[{"byteLength":13312,"uri":"data:application/octet-stream;base64,"}]}