{"asset":{"version":"2.0","generator":"Stracomter III \u00b7 conversor 3DS del proyecto de 2012"},"scene":0,"scenes":[{"nodes":[0]}],"nodes":[{"mesh":0,"name":"s1"}],"meshes":[{"name":"s1","primitives":[{"attributes":{"POSITION":0,"TEXCOORD_0":1},"indices":2,"mode":4}]}],"bufferViews":[{"buffer":0,"byteOffset":0,"byteLength":6492,"target":34962},{"buffer":0,"byteOffset":6492,"byteLength":4328,"target":34962},{"buffer":0,"byteOffset":10820,"byteLength":3300,"target":34963}],"accessors":[{"bufferView":0,"componentType":5126,"count":541,"type":"VEC3","min":[-0.5400555858758619,0.0,-0.2311900564920235],"max":[0.5400555858758619,1.7999322627692533,0.2311900564920235]},{"bufferView":1,"componentType":5126,"count":541,"type":"VEC2"},{"bufferView":2,"componentType":5123,"count":1650,"type":"SCALAR"}],"buffers":[{"byteLength":14120,"uri":"data:application/octet-stream;base64,"}]}