{"asset":{"version":"2.0","generator":"Stracomter III \u00b7 conversor 3DS del proyecto de 2012"},"scene":0,"scenes":[{"nodes":[0]}],"nodes":[{"mesh":0,"name":"m4"}],"meshes":[{"name":"m4","primitives":[{"attributes":{"POSITION":0,"TEXCOORD_0":1},"indices":2,"mode":4}]}],"bufferViews":[{"buffer":0,"byteOffset":0,"byteLength":6564,"target":34962},{"buffer":0,"byteOffset":6564,"byteLength":4376,"target":34962},{"buffer":0,"byteOffset":10940,"byteLength":3408,"target":34963}],"accessors":[{"bufferView":0,"componentType":5126,"count":547,"type":"VEC3","min":[-0.7513793644942637,0.0,-0.3319640692763441],"max":[0.7513793644942637,1.6524552533007044,0.3319640692763441]},{"bufferView":1,"componentType":5126,"count":547,"type":"VEC2"},{"bufferView":2,"componentType":5123,"count":1704,"type":"SCALAR"}],"buffers":[{"byteLength":14348,"uri":"data:application/octet-stream;base64,"}]}