{"asset":{"version":"2.0","generator":"Stracomter III \u00b7 conversor 3DS del proyecto de 2012"},"scene":0,"scenes":[{"nodes":[0]}],"nodes":[{"mesh":0,"name":"m5"}],"meshes":[{"name":"m5","primitives":[{"attributes":{"POSITION":0,"TEXCOORD_0":1},"indices":2,"mode":4}]}],"bufferViews":[{"buffer":0,"byteOffset":0,"byteLength":8556,"target":34962},{"buffer":0,"byteOffset":8556,"byteLength":5704,"target":34962},{"buffer":0,"byteOffset":14260,"byteLength":4296,"target":34963}],"accessors":[{"bufferView":0,"componentType":5126,"count":713,"type":"VEC3","min":[-0.7819364052119218,0.0,-0.34537193118117926],"max":[0.7819364052119218,1.7333802425955225,0.34537193118117926]},{"bufferView":1,"componentType":5126,"count":713,"type":"VEC2"},{"bufferView":2,"componentType":5123,"count":2148,"type":"SCALAR"}],"buffers":[{"byteLength":18556,"uri":"data:application/octet-stream;base64,"}]}