{"asset":{"version":"2.0","generator":"Stracomter III \u00b7 conversor 3DS del proyecto de 2012"},"scene":0,"scenes":[{"nodes":[0]}],"nodes":[{"mesh":0,"name":"p4"}],"meshes":[{"name":"p4","primitives":[{"attributes":{"POSITION":0,"TEXCOORD_0":1},"indices":2,"mode":4}]}],"bufferViews":[{"buffer":0,"byteOffset":0,"byteLength":7560,"target":34962},{"buffer":0,"byteOffset":7560,"byteLength":5040,"target":34962},{"buffer":0,"byteOffset":12600,"byteLength":3504,"target":34963}],"accessors":[{"bufferView":0,"componentType":5126,"count":630,"type":"VEC3","min":[-0.768502052670679,0.0,-0.28685925255840233],"max":[0.768502052670679,1.8162696165746837,0.28685925255840233]},{"bufferView":1,"componentType":5126,"count":630,"type":"VEC2"},{"bufferView":2,"componentType":5123,"count":1752,"type":"SCALAR"}],"buffers":[{"byteLength":16104,"uri":"data:application/octet-stream;base64,"}]}