{"asset":{"version":"2.0","generator":"Stracomter III \u00b7 conversor 3DS del proyecto de 2012"},"scene":0,"scenes":[{"nodes":[0]}],"nodes":[{"mesh":0,"name":"e1"}],"meshes":[{"name":"e1","primitives":[{"attributes":{"POSITION":0,"TEXCOORD_0":1},"indices":2,"mode":4}]}],"bufferViews":[{"buffer":0,"byteOffset":0,"byteLength":6096,"target":34962},{"buffer":0,"byteOffset":6096,"byteLength":4064,"target":34962},{"buffer":0,"byteOffset":10160,"byteLength":3264,"target":34963}],"accessors":[{"bufferView":0,"componentType":5126,"count":508,"type":"VEC3","min":[-0.6420379047772915,0.0,-0.29650177017640705],"max":[0.6420379047772915,1.799924426735714,0.29650177017640705]},{"bufferView":1,"componentType":5126,"count":508,"type":"VEC2"},{"bufferView":2,"componentType":5123,"count":1632,"type":"SCALAR"}],"buffers":[{"byteLength":13424,"uri":"data:application/octet-stream;base64,"}]}